<svg width="20" height="30" viewBox="0 0 20 30" fill="none" xmlns="http://www.w3.org/2000/svg">
<path d="M10.0575 2.34377C9.73346 2.34142 9.4692 2.60216 9.46686 2.9256C9.46451 3.24904 9.72467 3.5133 10.0487 3.51564C10.3721 3.51798 10.6364 3.25783 10.6387 2.93439C10.6411 2.61095 10.3809 2.3467 10.0575 2.34377ZM10.0308 5.85933C7.76846 5.84328 5.91567 7.66841 5.89856 9.93007C5.88151 12.1916 7.70764 14.0453 9.9693 14.0623L10.0007 14.0625C12.2479 14.0625 14.0846 12.2428 14.1016 9.9916C14.1186 7.73017 12.2925 5.87638 10.0308 5.85933ZM10.0006 12.8906L9.97809 12.8905C8.3626 12.8783 7.05818 11.5542 7.07037 9.93886C7.0825 8.33076 8.3943 7.03103 9.99953 7.03103L10.022 7.03115C11.6375 7.04334 12.9419 8.36744 12.9297 9.98281C12.9176 11.5909 11.6058 12.8906 10.0006 12.8906ZM12.5566 2.78814C12.2518 2.67998 11.9167 2.83964 11.8085 3.14468C11.7004 3.44972 11.8601 3.78459 12.165 3.89275C14.7459 4.80746 16.4659 7.26552 16.4453 10.0093C16.4429 10.3328 16.7032 10.5972 17.0269 10.5996H17.0314C17.3528 10.5996 17.6147 10.3402 17.6172 10.0181C17.6416 6.77509 15.6078 3.86961 12.5566 2.78814Z" fill="white"/>
<path d="M13.5954 22.0571C17.4926 17.0406 19.9282 14.4247 19.961 10.0358C20.0023 4.51377 15.5209 0 9.99928 0C4.54209 0 0.0808823 4.41961 0.0393979 9.88641C0.00588226 14.3943 2.48668 17.0067 6.41082 22.0563C2.50701 22.6397 0.0393979 24.1055 0.0393979 25.8984C0.0393979 27.0994 1.14952 28.1771 3.16532 28.933C5.00006 29.621 7.42743 29.9999 10.0002 29.9999C12.573 29.9999 15.0004 29.621 16.8351 28.933C18.8509 28.1771 19.961 27.0994 19.961 25.8984C19.961 24.1065 17.4957 22.641 13.5954 22.0571ZM1.21121 9.89525C1.24778 5.07129 5.18381 1.17188 9.9994 1.17188C14.872 1.17188 18.8256 5.15555 18.7892 10.0271C18.7581 14.1951 16.1751 16.7637 12.0515 22.1392C11.3159 23.0976 10.6405 24.0037 10.0011 24.89C9.3636 24.0032 8.7016 23.1133 7.95506 22.1389C3.66096 16.5383 1.17946 14.1638 1.21121 9.89525ZM10.0002 28.8281C4.96989 28.8281 1.21121 27.2814 1.21121 25.8984C1.21121 24.8728 3.45817 23.5772 7.23618 23.1285C8.07131 24.2243 8.8035 25.2198 9.52163 26.2365C9.57568 26.3131 9.64731 26.3755 9.73049 26.4186C9.81368 26.4618 9.90599 26.4843 9.99969 26.4844H10.0002C10.0938 26.4844 10.1861 26.4619 10.2693 26.4189C10.3524 26.376 10.4241 26.3137 10.4782 26.2373C11.1896 25.2338 11.9418 24.2138 12.7698 23.1292C16.5443 23.5783 18.7892 24.8735 18.7892 25.8985C18.7892 27.2814 15.0306 28.8281 10.0002 28.8281Z" fill="white"/>
</svg>
