<svg width="30" height="29" viewBox="0 0 30 29" fill="none" xmlns="http://www.w3.org/2000/svg">
<path d="M29.5382 7.03101L27.6459 5.1387C27.3228 4.81563 26.8151 4.81563 26.5382 5.1387L23.1689 8.50793V2.83101C23.1689 1.26178 21.9228 0.015625 20.3535 0.015625H3.04585C1.47662 0.015625 0.230469 1.26178 0.230469 2.83101V3.56947C0.230469 3.84639 0.415084 4.03101 0.692007 4.03101H4.93816V25.2156C4.93816 26.7849 6.18431 28.031 7.75355 28.031H23.9074C25.4766 28.031 26.7228 26.7849 26.7228 25.2156C26.7228 24.9387 26.5382 24.7541 26.2612 24.7541H23.1689V14.5079L29.5382 8.1387C29.8612 7.81562 29.8612 7.35409 29.5382 7.03101ZM26.8151 9.56947L16.1074 20.2772L15.5997 19.7695L26.3074 9.01562L26.8151 9.56947ZM13.9843 19.4002L15.2305 20.6464L13.4766 21.1541L13.9843 19.4002ZM14.9535 19.0772L14.4459 18.5695L25.1535 7.86178L25.6612 8.36947L14.9535 19.0772ZM4.93816 3.10793H1.15355V2.83101C1.15355 1.76947 1.98431 0.938702 3.04585 0.938702C4.10739 0.938702 4.93816 1.76947 4.93816 2.83101V3.10793ZM23.9074 27.0618H9.83047C10.1997 26.6464 10.4305 26.1849 10.5228 25.631H25.7074C25.5228 26.4618 24.7843 27.0618 23.9074 27.0618ZM22.2459 24.7079H10.1074C9.83047 24.7079 9.64585 24.8925 9.64585 25.1695C9.64585 26.231 8.81508 27.0618 7.75355 27.0618C6.69201 27.0618 5.86124 26.231 5.86124 25.1695V2.83101C5.86124 2.09255 5.58432 1.44639 5.12278 0.938702H20.3535C21.4151 0.938702 22.2459 1.76947 22.2459 2.83101V9.38486L13.4305 18.2002C13.3843 18.2464 13.3382 18.3387 13.292 18.3849L12.3228 21.7079C12.2766 21.8464 12.3228 22.031 12.4612 22.1695C12.5997 22.3079 12.7382 22.3541 12.9228 22.3079L16.2459 21.3387C16.292 21.3387 16.3843 21.2925 16.4305 21.2002L22.2459 15.3849V24.7079ZM27.4612 8.92332L25.7535 7.21562L27.092 5.87716L28.7997 7.58486L27.4612 8.92332Z" fill="white"/>
<path d="M10.6153 3.52344H7.70763C7.43071 3.52344 7.24609 3.70805 7.24609 3.98498V6.84651C7.24609 7.12344 7.43071 7.30805 7.70763 7.30805H10.6153C10.8922 7.30805 11.0769 7.12344 11.0769 6.84651V3.93882C11.0769 3.70805 10.8461 3.52344 10.6153 3.52344ZM10.1538 6.38498H8.16917V4.40036H10.1538V6.38498ZM10.6153 11.0004H7.70763C7.43071 11.0004 7.24609 11.185 7.24609 11.4619V14.3696C7.24609 14.6465 7.43071 14.8311 7.70763 14.8311H10.6153C10.8922 14.8311 11.0769 14.6465 11.0769 14.3696V11.4619C11.0769 11.2311 10.8461 11.0004 10.6153 11.0004ZM10.1538 13.9081H8.16917V11.9234H10.1538V13.9081ZM10.6153 18.5234H7.70763C7.43071 18.5234 7.24609 18.7081 7.24609 18.985V21.8927C7.24609 22.1696 7.43071 22.3542 7.70763 22.3542H10.6153C10.8922 22.3542 11.0769 22.1696 11.0769 21.8927V18.985C11.0769 18.7081 10.8461 18.5234 10.6153 18.5234ZM10.1538 21.385H8.16917V19.4004H10.1538V21.385ZM12.6461 4.95421H20.3999C20.6769 4.95421 20.8615 4.76959 20.8615 4.49267C20.8615 4.21574 20.6769 4.03113 20.3999 4.03113H12.6461C12.3692 4.03113 12.1846 4.21574 12.1846 4.49267C12.1846 4.76959 12.4153 4.95421 12.6461 4.95421ZM12.6461 6.80036H20.3999C20.6769 6.80036 20.8615 6.61575 20.8615 6.33882C20.8615 6.0619 20.6769 5.87728 20.3999 5.87728H12.6461C12.3692 5.87728 12.1846 6.0619 12.1846 6.33882C12.1846 6.61575 12.4153 6.80036 12.6461 6.80036ZM12.6461 12.4311H16.9846C17.2615 12.4311 17.4461 12.2465 17.4461 11.9696C17.4461 11.6927 17.2615 11.5081 16.9846 11.5081H12.6461C12.3692 11.5081 12.1846 11.6927 12.1846 11.9696C12.1846 12.2465 12.4153 12.4311 12.6461 12.4311ZM15.1384 14.2773C15.4153 14.2773 15.5999 14.0927 15.5999 13.8157C15.5999 13.5388 15.4153 13.3542 15.1384 13.3542H12.6461C12.3692 13.3542 12.1846 13.5388 12.1846 13.8157C12.1846 14.0927 12.3692 14.2773 12.6461 14.2773H15.1384Z" fill="white"/>
</svg>
