<svg width="34" height="34" viewBox="0 0 34 34" fill="none" xmlns="http://www.w3.org/2000/svg">
<path d="M30.334 17.0007C30.334 13.4644 28.9292 10.073 26.4287 7.57256C23.9283 5.07208 20.5369 3.66732 17.0007 3.66732C13.4644 3.66732 10.073 5.07208 7.57256 7.57256C5.07208 10.073 3.66732 13.4644 3.66732 17.0007V23.6673H8.66732C9.10935 23.6673 9.53327 23.8429 9.84583 24.1555C10.1584 24.468 10.334 24.892 10.334 25.334V30.334H23.6673V25.334C23.6673 24.892 23.8429 24.468 24.1555 24.1555C24.468 23.8429 24.892 23.6673 25.334 23.6673H30.334V17.0007ZM27.0007 27.0007V32.0007C27.0007 32.4427 26.8251 32.8666 26.5125 33.1792C26.1999 33.4917 25.776 33.6673 25.334 33.6673H8.66732C8.22529 33.6673 7.80137 33.4917 7.48881 33.1792C7.17625 32.8666 7.00065 32.4427 7.00065 32.0007V27.0007H2.00065C1.55862 27.0007 1.1347 26.8251 0.82214 26.5125C0.509579 26.1999 0.333984 25.776 0.333984 25.334V17.0007C0.333984 7.79565 7.79565 0.333984 17.0007 0.333984C26.2057 0.333984 33.6673 7.79565 33.6673 17.0007V25.334C33.6673 25.776 33.4917 26.1999 33.1792 26.5125C32.8666 26.8251 32.4427 27.0007 32.0007 27.0007H27.0007ZM9.50065 20.334C9.17235 20.334 8.84726 20.2693 8.54394 20.1437C8.24063 20.018 7.96503 19.8339 7.73288 19.6018C7.50074 19.3696 7.31659 19.094 7.19095 18.7907C7.06532 18.4874 7.00065 18.1623 7.00065 17.834C7.00065 17.5057 7.06532 17.1806 7.19095 16.8773C7.31659 16.574 7.50074 16.2984 7.73288 16.0662C7.96503 15.8341 8.24063 15.6499 8.54394 15.5243C8.84726 15.3986 9.17235 15.334 9.50065 15.334C10.1637 15.334 10.7996 15.5974 11.2684 16.0662C11.7373 16.5351 12.0007 17.1709 12.0007 17.834C12.0007 18.497 11.7373 19.1329 11.2684 19.6018C10.7996 20.0706 10.1637 20.334 9.50065 20.334ZM24.5007 20.334C24.1723 20.334 23.8473 20.2693 23.5439 20.1437C23.2406 20.018 22.965 19.8339 22.7329 19.6018C22.5007 19.3696 22.3166 19.094 22.191 18.7907C22.0653 18.4874 22.0007 18.1623 22.0007 17.834C22.0007 17.5057 22.0653 17.1806 22.191 16.8773C22.3166 16.574 22.5007 16.2984 22.7329 16.0662C22.965 15.8341 23.2406 15.6499 23.5439 15.5243C23.8473 15.3986 24.1723 15.334 24.5007 15.334C25.1637 15.334 25.7996 15.5974 26.2684 16.0662C26.7373 16.5351 27.0007 17.1709 27.0007 17.834C27.0007 18.497 26.7373 19.1329 26.2684 19.6018C25.7996 20.0706 25.1637 20.334 24.5007 20.334Z" fill="#0B0914"/>
</svg>
