<svg width="1170" height="549" viewBox="0 0 1170 549" fill="none" xmlns="http://www.w3.org/2000/svg">
<path d="M30 549H470.304C485.63 549 498.054 536.576 498.054 521.25C498.054 505.924 510.478 493.5 525.804 493.5H648.719C664.045 493.5 676.469 505.924 676.469 521.25C676.469 536.576 688.893 549 704.219 549H1140C1156.57 549 1170 535.569 1170 519V30C1170 13.4315 1156.57 0 1140 0H30C13.4315 0 0 13.4315 0 30V519C0 535.569 13.4315 549 30 549Z" fill="url(#paint0_linear_2011_2021)"/>
<path d="M30 549H470.304C485.63 549 498.054 536.576 498.054 521.25C498.054 505.924 510.478 493.5 525.804 493.5H648.719C664.045 493.5 676.469 505.924 676.469 521.25C676.469 536.576 688.893 549 704.219 549H1140C1156.57 549 1170 535.569 1170 519V30C1170 13.4315 1156.57 0 1140 0H30C13.4315 0 0 13.4315 0 30V519C0 535.569 13.4315 549 30 549Z" fill="black"/>
<defs>
<linearGradient id="paint0_linear_2011_2021" x1="585" y1="0" x2="585" y2="549" gradientUnits="userSpaceOnUse">
<stop stop-opacity="0"/>
<stop offset="1" stop-opacity="0.8"/>
</linearGradient>
</defs>
</svg>
