<svg width="28" height="30" viewBox="0 0 28 30" fill="none" xmlns="http://www.w3.org/2000/svg">
<path d="M13.7773 25.019C13.8945 25.1421 14.1055 25.1421 14.2285 25.019L17.6152 21.6382C19.8945 19.1538 16.3145 15.8491 14.0059 18.3159C12.5352 16.605 9.66992 17.6421 9.68164 19.9097C9.68164 20.5659 9.93945 21.1812 10.4023 21.644L13.7773 25.019ZM10.8418 18.6206C11.5215 17.9175 12.7344 17.9175 13.4141 18.6206L13.7773 18.9839C13.8945 19.1069 14.1055 19.1069 14.2227 18.9839C14.6445 18.5034 15.2012 18.0581 15.875 18.0874C17.4629 18.0581 18.3125 20.0913 17.1641 21.1987L14 24.3569L10.8418 21.1929C10.127 20.519 10.127 19.3003 10.8418 18.6206ZM27.6055 27.9722H25.8418V26.0503C26.1465 26.0444 26.7266 26.144 26.7148 25.6929L25.8828 16.3882C26.1641 16.394 26.6973 16.5229 26.7148 16.0894V9.09912H27.6055C27.7813 9.09912 27.9219 8.9585 27.9219 8.78271V6.97217C27.9102 6.85498 27.8574 6.74365 27.7461 6.69092L14.1348 0.0874023C14.0469 0.0463867 13.9473 0.0463867 13.8594 0.0874023L0.253906 6.69678C0.148438 6.74951 0.0839844 6.86084 0.078125 6.97803V8.78857C0.078125 8.96436 0.21875 9.10498 0.394531 9.10498H1.28516V16.0952C1.30273 16.5288 1.83594 16.394 2.11719 16.394L1.28516 25.6987C1.27344 26.1499 1.85938 26.0503 2.1582 26.0562V27.978H0.394531C0.21875 27.978 0.078125 28.1187 0.078125 28.2944V29.6304C0.078125 29.8062 0.21875 29.9468 0.394531 29.9468H27.6113C27.7871 29.9468 27.9277 29.8062 27.9277 29.6304V28.2944C27.9219 28.1128 27.7813 27.9722 27.6055 27.9722ZM26.0586 25.4292C25.2676 25.4468 24.4121 25.2417 23.7324 24.8374V15.9312C24.2246 16.1069 24.7285 16.2476 25.2441 16.3237L26.0586 25.4292ZM25.2148 26.0034V27.9722H24.6055V25.8745C24.8047 25.9331 25.0098 25.9683 25.2148 26.0034ZM4.89453 23.3022C5.46289 23.1323 6.00195 22.8921 6.49414 22.5815C6.83398 22.3647 7.15039 22.1187 7.44922 21.8315C7.51953 21.7671 7.55469 21.6733 7.54883 21.5737L7.30273 18.7554C8.09375 18.4448 9.13086 17.3901 9.21289 16.3999L8.3457 12.3335C8.86719 11.3374 9.16602 10.23 9.21289 9.10498H18.793C18.8398 10.23 19.1328 11.3374 19.6602 12.3335L18.793 16.3999C18.875 17.3901 19.9121 18.4448 20.7031 18.7554L20.457 21.5737C20.4512 21.6675 20.4863 21.7612 20.5566 21.8315C21.2832 22.5288 22.1504 23.0151 23.1172 23.3022V25.0132C23.1523 25.3823 23.709 25.4878 23.9902 25.6519V27.9722H4.02148V25.6519C4.2793 25.4995 4.86523 25.3765 4.89453 25.0132V23.3022ZM6.91016 21.48C6.32422 22.0073 5.64453 22.3999 4.89453 22.6519V15.6616C5.4043 15.4214 5.87891 15.1167 6.32422 14.771C6.48828 16.6577 6.74609 19.5815 6.91016 21.48ZM6.91016 14.2554C7.26758 13.9097 7.57812 13.5229 7.87109 13.1245L8.58008 16.4526C8.39844 17.1147 7.8125 17.8003 7.24414 18.0874C7.16797 17.2378 6.98047 15.0815 6.91016 14.2554ZM21.0664 14.478L20.75 18.0815C20.1934 17.8062 19.5957 17.1147 19.4141 16.4526L20.123 13.1245C20.416 13.5229 20.7266 13.9097 21.084 14.2554L21.0664 14.478ZM21.3418 18.5854L21.6523 15.0112L21.6758 14.771C22.1211 15.1167 22.5957 15.4214 23.1055 15.6616V22.646C22.3555 22.3999 21.6758 22.0073 21.0898 21.4741L21.3418 18.5854ZM26.0879 15.7788C22.5723 15.6792 19.5078 12.6382 19.4141 9.11084H22.0215C22.1035 11.7827 23.7148 14.3198 26.0879 15.5386V15.7788ZM26.0879 14.8179C24.0781 13.6519 22.7305 11.437 22.6484 9.10498H26.0879V14.8179ZM14 0.720215L26.2402 6.66162H1.75977L14 0.720215ZM0.705078 8.47803V7.29443H27.2891V8.47803H0.705078ZM5.35156 9.10498C5.26367 11.437 3.92773 13.646 1.91211 14.8179V9.10498H5.35156ZM1.91211 15.7788V15.5386C4.29102 14.314 5.89648 11.7886 5.97852 9.11084H8.58594C8.49219 12.6323 5.42773 15.6733 1.91211 15.7788ZM1.94141 25.4292L2.75 16.3237C3.26562 16.2476 3.77539 16.1069 4.26758 15.9312V24.8374C3.55859 25.2476 2.76172 25.4409 1.94141 25.4292ZM3.38867 25.8804V27.978H2.78516V26.0093C2.99023 25.9683 3.19531 25.9331 3.38867 25.8804ZM27.2949 29.314H0.705078V28.605H27.2891V29.314H27.2949ZM19.5371 4.81006L14.1406 2.18506C14.0527 2.14404 13.9531 2.14404 13.8652 2.18506L8.46875 4.81006C8.17578 4.94482 8.28125 5.41943 8.60352 5.40772H19.4023C19.7188 5.41943 19.8359 4.94482 19.5371 4.81006ZM9.96875 4.78076L14 2.82373L18.0312 4.78076H9.96875Z" fill="white"/>
</svg>
